PathFileType	4	(X/Y/Z)	G:\TennisProject\Miami_Dimitrov_Sinner_masked_Sports2D\Miami_Dimitrov_Sinner_masked_Sports2D_m_person03.trc
DataRate	CameraRate	NumFrames	NumMarkers	Units	OrigDataRate	OrigDataStartFrame	OrigNumFrames
25	25	7	22	m	25	187	499
Frame#	Time	Hip			RHip			RKnee			RAnkle			RBigToe			RSmallToe			RHeel			LHip			LKnee			LAnkle			LBigToe			LSmallToe			LHeel			Neck			Head			Nose			RShoulder			RElbow			RWrist			LShoulder			LElbow			LWrist		
		X1	Y1	Z1	X2	Y2	Z2	X3	Y3	Z3	X4	Y4	Z4	X5	Y5	Z5	X6	Y6	Z6	X7	Y7	Z7	X8	Y8	Z8	X9	Y9	Z9	X10	Y10	Z10	X11	Y11	Z11	X12	Y12	Z12	X13	Y13	Z13	X14	Y14	Z14	X15	Y15	Z15	X16	Y16	Z16	X17	Y17	Z17	X18	Y18	Z18	X19	Y19	Z19	X20	Y20	Z20	X21	Y21	Z21	X22	Y22	Z22
187	7.48	9.57054997504607	2.05950910864687	0.0	9.469573997927492	2.0520789063206037	0.0	9.448896749065575	1.6880446178626454	0.0	9.453557544805767	1.3186433856726767	0.0	9.406136254279877	1.227242574098009	0.0	9.368092001412883	1.2371652479701436	0.0	9.472722597164879	1.2597309878632514	0.0	9.66615999680245	2.050874256124792	0.0	9.71623718986503	1.68972175461889	0.0	9.761496592991534	1.3226803123420807	0.0	9.779836010834797	1.2365222759568597	0.0	9.823436165085578	1.2435797423871333	0.0	9.727419726330076	1.2672361614348215	0.0	9.551969633745827	2.5674856155522527	0.0	9.536995984898896	2.7914703819339794	0.0	9.533100826894799	2.66746504008148	0.0	9.386418880709057	2.4789952254972896	0.0	9.36930065525058	2.27663750872117	0.0	9.499021373790274	2.1780478651684207	0.0	9.729730368070094	2.490898901620782	0.0	9.765033998259277	2.2791320910015602	0.0	9.650536147392424	2.1721205450077425	0.0
188	7.5200000000000005	9.57047045354102	2.058412635969905	0.0	9.469333930924439	2.051895460520844	0.0	9.449302887629695	1.6872906415845035	0.0	9.453681327786404	1.3176693068392706	0.0	9.407774609515158	1.2280911572818294	0.0	9.37142783797058	1.2384874893805071	0.0	9.474877652069551	1.2600679500937524	0.0	9.665257095072592	2.0501927504111417	0.0	9.71614901030005	1.6899868417052768	0.0	9.761359423448221	1.3222723900103661	0.0	9.780844685522254	1.2418672320118618	0.0	9.822358955482073	1.248382479333018	0.0	9.733990798882056	1.2704180475580626	0.0	9.550696192107944	2.567432683446961	0.0	9.536283719754728	2.7909155681718265	0.0	9.532641415693966	2.6663994281823404	0.0	9.386925999794085	2.4771071393781936	0.0	9.369409346335178	2.276717020951853	0.0	9.499194958755657	2.1787211527501262	0.0	9.729094986387006	2.491566513067359	0.0	9.764261964485755	2.2771732577737227	0.0	9.644570882799355	2.1727028831321102	0.0
189	7.5600000000000005	9.570719189119833	2.059579780222725	0.0	9.470099167787616	2.052289980505253	0.0	9.449364212099004	1.68712103829534	0.0	9.452194184696861	1.3184990941383068	0.0	9.408750439008987	1.225851562566214	0.0	9.368736520019187	1.235724714017921	0.0	9.473065941616234	1.2606499991817663	0.0	9.665633821321048	2.0510120623774943	0.0	9.71633547477053	1.6906735051410684	0.0	9.761446496628867	1.323380624599954	0.0	9.775863944262104	1.2365351673298546	0.0	9.823143340518024	1.242139883720311	0.0	9.725188558926085	1.267515713907016	0.0	9.551956145509763	2.568321430774304	0.0	9.536975598401254	2.7934382862931924	0.0	9.533292286989024	2.6676768936425375	0.0	9.387181273646858	2.4793058987437417	0.0	9.367996507823893	2.279194284996125	0.0	9.497335781054463	2.1789804244828788	0.0	9.731192222812007	2.4913149883047483	0.0	9.766138856055516	2.2802780211302136	0.0	9.650363347387662	2.171524087723702	0.0
190	7.6000000000000005	9.571085319563277	2.061053648319423	0.0	9.47066180673845	2.0521147765134478	0.0	9.449023908561589	1.6864422327734494	0.0	9.45094408689983	1.319136300379392	0.0	9.409116317911261	1.2236488630125693	0.0	9.365951349264245	1.2330332058350124	0.0	9.472209887574943	1.2600525520335857	0.0	9.66658375262889	2.052093245044316	0.0	9.715465878928997	1.6894338252581103	0.0	9.760604628765693	1.323828747792635	0.0	9.77241468173892	1.2313057513575034	0.0	9.823171676839479	1.2364505894851956	0.0	9.717690323605074	1.2640319436492715	0.0	9.553721044330072	2.5676536010022857	0.0	9.538163800745817	2.793613031030176	0.0	9.534066763183754	2.667971520320491	0.0	9.38699205033001	2.4816946838528766	0.0	9.367664648270358	2.2793385591679702	0.0	9.49630375483382	2.178897647347617	0.0	9.732307948471835	2.489926111297668	0.0	9.768257681326773	2.2815088987225933	0.0	9.656687599669498	2.170635492782161	0.0
191	7.640000000000001	9.570564930926832	2.060293813930347	0.0	9.469756658372672	2.0503536224632084	0.0	9.44902702744346	1.6838451803059602	0.0	9.452239191281505	1.316750177129892	0.0	9.410012475873073	1.2242283446323903	0.0	9.369590312113623	1.234111922892012	0.0	9.475010907237035	1.2577751103024857	0.0	9.667160168054131	2.0517091156015694	0.0	9.714377483245629	1.6868522434335094	0.0	9.759546872600811	1.3218977091138533	0.0	9.776346847525895	1.23584693529867	0.0	9.821357564979378	1.2416878086735552	0.0	9.726716841899655	1.2644733657556728	0.0	9.553141292645206	2.566613020492495	0.0	9.53817851188187	2.791279397205142	0.0	9.533408494737612	2.6675129890182823	0.0	9.386683011089346	2.4811863890769916	0.0	9.368400741289129	2.2768483518668283	0.0	9.497291894992747	2.1790358738680964	0.0	9.730599811456635	2.4895320124596414	0.0	9.769055506243712	2.2782743134174934	0.0	9.651137569313521	2.1717382942885384	0.0
192	7.68	9.569420325511471	2.05710074202936	0.0	9.468549533090128	2.047456553354518	0.0	9.448789502172907	1.6824423904777246	0.0	9.454120020574202	1.3151040400825935	0.0	9.408917864219749	1.2255953651134892	0.0	9.372661765990468	1.2359635717992872	0.0	9.475607495570227	1.2558615763480738	0.0	9.667499467770499	2.04892669611228	0.0	9.714793882403239	1.6857876971362185	0.0	9.759897226909425	1.3198588504180675	0.0	9.779743510688427	1.239887710951009	0.0	9.820800806292889	1.246335037203841	0.0	9.735620992235301	1.2647920413032643	0.0	9.551593393234425	2.567665245095864	0.0	9.537176982353781	2.7911821353216633	0.0	9.531776579728733	2.6685849153352956	0.0	9.386268674247685	2.4798686264084964	0.0	9.368284816986385	2.2764306121652798	0.0	9.497069297190569	2.1776468208728885	0.0	9.729351891933451	2.4896526618734676	0.0	9.769549929822693	2.276845238203682	0.0	9.64599287486935	2.170204867926137	0.0
193	7.72	9.568922114089318	2.053910493385961	0.0	9.468566874381311	2.0456442680847093	0.0	9.447849778899421	1.684771367716422	0.0	9.453073756167639	1.3172740485904701	0.0	9.40451604463157	1.224670112431289	0.0	9.368207412372817	1.2345557404717513	0.0	9.471347410843638	1.256044026715625	0.0	9.667242827419585	2.0453706459187933	0.0	9.716101052799859	1.685958627389738	0.0	9.761176833419293	1.3200535495707397	0.0	9.775995247633036	1.234168547990716	0.0	9.822840956679475	1.2399636559783653	0.0	9.72822295958114	1.2614357032864891	0.0	9.551474622122328	2.5699275645049786	0.0	9.536322310811638	2.793933096380057	0.0	9.530035682483105	2.670538959209257	0.0	9.385662817043437	2.47942167644925	0.0	9.3672722724779	2.278306667354939	0.0	9.493724695083506	2.172885057641311	0.0	9.730507292138855	2.487922464046144	0.0	9.77031931662353	2.2792009891206426	0.0	9.653957584296487	2.1633298364447757	0.0
